HIERARCHY
ROOT Root
{
	OFFSET 0.00000 0.00000 0.00000
	CHANNELS 6 Xposition Yposition Zposition Zrotation Xrotation Yrotation
	JOINT Hip
	{
		OFFSET 0 0 0	
		CHANNELS 3 Zrotation Xrotation Yrotation
		JOINT Tummy
		{
			OFFSET 0 0.04 0	
			CHANNELS 3 Zrotation Xrotation Yrotation
			JOINT ChestBottom
			{
				OFFSET 0 0.194 0	
				CHANNELS 3 Zrotation Xrotation Yrotation
				JOINT ChestTop
				{
					OFFSET 0 0.166 0	
					CHANNELS 3 Zrotation Xrotation Yrotation
					JOINT LeftCollar
					{
						OFFSET 0 0.1 0	
						CHANNELS 3 Zrotation Xrotation Yrotation
						JOINT LeftUpperArm
						{
							OFFSET 0.156 -0.02 0.03	
							CHANNELS 3 Zrotation Xrotation Yrotation
							JOINT LeftForeArm
							{
								OFFSET 0.035 -0.27 -0.01	
								CHANNELS 3 Zrotation Xrotation Yrotation
								JOINT LeftHand
								{
									OFFSET 0.01 -0.27 0.01	
									CHANNELS 3 Zrotation Xrotation Yrotation
									End Site
									{
										OFFSET 0 -0.15 0
									}
								}
							}
						}
					}
					JOINT RightCollar
					{
						OFFSET 0 0.1 0	
						CHANNELS 3 Zrotation Xrotation Yrotation
						JOINT RightUpperArm
						{
							OFFSET -0.156 -0.02 0.03	
							CHANNELS 3 Zrotation Xrotation Yrotation
							JOINT RightForeArm
							{
								OFFSET -0.035 -0.27 -0.01	
								CHANNELS 3 Zrotation Xrotation Yrotation
								JOINT RightHand
								{
									OFFSET -0.01 -0.27 0.01	
									CHANNELS 3 Zrotation Xrotation Yrotation
									End Site
									{
										OFFSET 0 -0.15 0
									}
								}
							}
						}
					}
					JOINT Neck
					{
						OFFSET 0 0.1 0	
						CHANNELS 3 Zrotation Xrotation Yrotation
						JOINT Head
						{
							OFFSET 0 0.127 0.03	
							CHANNELS 3 Zrotation Xrotation Yrotation
							End Site
							{
								OFFSET 0 0.127 0.03
							}
						}
					}
				}
			}
		}
	}
	JOINT LeftHip
	{
		OFFSET 0 0 0	
		CHANNELS 3 Zrotation Xrotation Yrotation
		JOINT LeftThigh
		{
			OFFSET 0.088 -0.06 0	
			CHANNELS 3 Zrotation Xrotation Yrotation
			JOINT LeftLowerLeg
			{
				OFFSET 0 -0.39 0.02	
				CHANNELS 3 Zrotation Xrotation Yrotation
				JOINT LeftFootTop
				{
					OFFSET 0 -0.43 -0.02	
					CHANNELS 3 Zrotation Xrotation Yrotation
					JOINT LeftFootFront
					{
						OFFSET 0 -0.07 0.085	
						CHANNELS 3 Zrotation Xrotation Yrotation
						End Site
						{
							OFFSET 0 -0.005 0.09
						}
					}
				}
				JOINT LeftHeel
				{
					OFFSET 0 -0.43 -0.02	
					CHANNELS 3 Zrotation Xrotation Yrotation
					End Site
					{
						OFFSET 0 -0.075 -0.05
					}
				}
			}
		}
	}
	JOINT RightHip
	{
		OFFSET 0 0 0	
		CHANNELS 3 Zrotation Xrotation Yrotation
		JOINT RightThigh
		{
			OFFSET -0.088 -0.06 0	
			CHANNELS 3 Zrotation Xrotation Yrotation
			JOINT RightLowerLeg
			{
				OFFSET 0 -0.39 0.02	
				CHANNELS 3 Zrotation Xrotation Yrotation
				JOINT RightFootTop
				{
					OFFSET 0 -0.43 -0.02	
					CHANNELS 3 Zrotation Xrotation Yrotation
					JOINT RightFootFront
					{
						OFFSET 0 -0.07 0.085	
						CHANNELS 3 Zrotation Xrotation Yrotation
						End Site
						{
							OFFSET 0 -0.005 0.09
						}
					}
				}
				JOINT RightHeel
				{
					OFFSET 0 -0.43 -0.02	
					CHANNELS 3 Zrotation Xrotation Yrotation
					End Site
					{
						OFFSET 0 -0.075 -0.05
					}
				}
			}
		}
	}
}
MOTION
Frames: 18
Frame Time: 0.05
0 0.96742 0 -0 0 -0 -5.3139 -0.8875 11.341 3.5435 3.8697 1.0559 3.5435 3.8697 1.0559 2.9805 3.2463 0.90288 -0 0 -0 34.645 24.1 23.38 -89.796 27.314 17.097 0 0 -1.7075e-06 -0 0 -0 -26.007 31.782 -10.312 63.717 -50.026 33.389 -0 0 -0 -0 0 -0 -0 0 -0 -5.3139 -0.8875 11.341 3.3339 -2.5238 -1.9243 0.68185 4.7092 2.9836 -0 0 -0 -1.0672e-07 -3.2924e-16 3.5352e-07 -0 0 -0 -5.3139 -0.8875 11.341 1.8882 2.5563 8.1711 3.1577 -9.1356 -21.485 -0 0 -0 0 0 -2.668e-08 -0 0 -0 
0 0.96744 0 -0 0 -0 -5.2549 -0.82322 11.318 3.5658 3.8384 0.99955 3.5658 3.8384 0.99955 2.999 3.2202 0.85551 -0 0 -0 35.36 24.347 22.541 -90.275 28.151 16.211 0.4854 -0.24436 -1.5504 -0 0 -0 -26.002 31.84 -10.49 67.111 -51.119 34.432 -1.0015 -0.20444 1.2884 -0 0 -0 -0 0 -0 -5.2549 -0.82322 11.318 3.3687 -2.5397 -1.5324 0.66525 4.7163 2.6104 -0 0 -0 -0 0 2.8348e-07 -0 0 -0 -5.2549 -0.82322 11.318 1.8602 2.433 8.3242 3.1421 -9.2105 -21.377 -0 0 -0 0 0 -1.334e-08 -0 0 -0 
0 0.9675 0 -0 0 -0 -5.122 -0.83668 11.11 3.5249 3.9418 0.90666 3.5249 3.9418 0.90666 2.9643 3.3075 0.77774 -0 0 -0 35.918 24.552 21.511 -89.417 28.101 11.594 0.68447 -0.45902 -1.9513 -0 0 -0 -26.328 30.998 -10.605 67.969 -53.149 35.718 -0.14139 -0.20071 0.071681 -0 0 -0 -0 0 -0 -5.122 -0.83668 11.11 3.3145 -2.5228 -1.126 0.68179 4.958 2.0699 -0 0 -0 -9.9234e-11 -0.25256 -4.5024e-08 -0 0 -0 -5.122 -0.83668 11.11 1.7754 2.2891 8.4271 3.164 -9.1072 -21.183 -0 0 -0 -0 0 1.334e-08 -0 0 -0 
0 0.96766 0 -0 0 -0 -5.0351 -0.78608 10.763 3.4939 4.0602 0.78926 3.4939 4.0602 0.78926 2.9378 3.4074 0.67948 -0 0 -0 36.016 24.554 21.307 -86.456 27.596 2.4018 -0.37571 0.076031 0.98038 -0 0 -0 -27.314 29.525 -10.388 68.706 -55.356 36.497 0.36941 -0.046659 0.2716 -0 0 -0 -0 0 -0 -5.0351 -0.78608 10.763 3.2636 -2.6386 -0.88328 0.66833 5.1501 1.9785 -0 0 -0 4.7962e-09 -0.33804 1.6259e-06 -0 0 -0 -5.0351 -0.78608 10.763 1.6781 2.1489 8.3973 3.2127 -8.9953 -20.877 -0 0 -0 -0 0 8.0041e-08 -0 0 -0 
0 0.96797 0 -0 0 -0 -5.1497 -0.68089 10.361 3.6224 4.1041 0.8032 3.6224 4.1041 0.8032 3.0458 3.4441 0.69198 -0 0 -0 35.565 24.35 20.981 -83.907 26.902 -4.4409 -0.12697 0.041457 1.0717 -0 0 -0 -28.327 28.137 -10.496 70.404 -57.15 38.614 -0.1876 0.22001 1.4376 -0 0 -0 -0 0 -0 -5.1497 -0.68089 10.361 3.3694 -2.8758 -0.76786 0.65804 5.3006 2.1547 -0 0 -0 -1.0348e-07 -0.34605 1.0752e-06 -0 0 -0 -5.1497 -0.68089 10.361 1.7671 1.943 8.5072 3.1661 -8.8101 -20.8 -0 0 -0 0 0 -7.3371e-08 -0 0 -0 
0 0.9684 0 -0 0 -0 -5.5873 -0.3071 10.014 3.8972 3.9315 0.77919 3.8972 3.9315 0.77919 3.2763 3.2991 0.67237 -0 0 -0 34.639 24.783 20.287 -81.276 25.632 -9.3789 -0.3195 0.013597 1.2203 -0 0 -0 -29.494 26.826 -10.859 71.254 -58.33 43.01 -0.51461 0.52399 0.7829 -0 0 -0 -0 0 -0 -5.5873 -0.3071 10.014 3.7393 -3.4016 -0.73785 0.64057 5.3502 2.3871 -0 0 -0 -1.2294e-09 -0.28736 -4.9026e-07 -0 0 -0 -5.5873 -0.3071 10.014 2.1289 1.4627 8.6187 2.9706 -8.4814 -20.901 -0 0 -0 -0 0 4.0021e-08 -0 0 -0 
0 0.96888 0 -0 0 -0 -6.9744 0.19006 9.7347 4.4971 3.5443 0.80871 4.4971 3.5443 0.80871 3.7801 2.9731 0.69792 -0 0 -0 33.905 25.721 19.673 -79.379 24.727 -11.866 -0.64157 -0.056326 0.8662 -0 0 -0 -30.709 26.01 -10.939 69.828 -59.662 47.014 0.12009 0.51623 -1.6183 -0 0 -0 -0 0 -0 -6.9744 0.19006 9.7347 5.078 -4.1305 -0.69413 0.5803 5.3216 2.5466 -0 0 -0 1.0292e-10 -0.22814 5.1694e-08 -0 0 -0 -6.9744 0.19006 9.7347 3.4032 0.71424 8.6215 2.8998 -8.232 -20.807 -0 0 -0 0 0 -3.3351e-08 -0 0 -0 
0 0.96923 0 -0 0 -0 -7.4531 0.16725 9.5587 4.6587 3.5378 0.8755 4.6587 3.5378 0.8755 3.9161 2.9671 0.75466 -0 0 -0 33.768 26.128 19.703 -78.99 24.603 -12.077 -0.84019 -0.22818 0.72889 -0 0 -0 -30.736 25.312 -10.584 66.964 -61.344 46.855 0.043205 0.42853 -1.3105 -0 0 -0 -0 0 -0 -7.4531 0.16725 9.5587 5.6261 -4.1403 -0.82234 0.55639 5.2795 2.7816 -0 0 -0 -6.8542e-10 -0.21122 -3.7186e-07 -0 0 -0 -7.4531 0.16725 9.5587 3.9099 0.60274 8.5074 2.7429 -7.9976 -20.671 -0 0 -0 1.0672e-07 9.9392e-17 1.0672e-07 -0 0 -0 
0 0.96936 0 -0 0 -0 -7.3643 -0.11989 9.4101 4.5831 3.798 1.0567 4.5831 3.798 1.0567 3.8535 3.1849 0.90791 -0 0 -0 33.999 25.536 19.983 -80.667 24.838 -9.628 0.45057 -0.25651 -1.085 -0 0 -0 -29.842 24.379 -10.826 62.092 -62.494 42.644 -0.11976 0.030477 -0.092577 -0 0 -0 -0 0 -0 -7.3643 -0.11989 9.4101 5.6393 -3.8285 -1.0287 0.59848 5.2541 3.1548 -0 0 -0 -2.1376e-07 -0.17804 -2.0544e-07 -0 0 -0 -7.3643 -0.11989 9.4101 3.9152 0.81064 8.4404 2.5699 -7.7863 -20.537 -0 0 -0 -0 0 5.3361e-08 -0 0 -0 
0 0.96925 0 -0 0 -0 -6.9272 -0.49257 9.464 4.354 3.9828 1.2842 4.354 3.9828 1.2842 3.6624 3.3392 1.0988 -0 0 -0 34.944 24.49 19.639 -81.814 24.503 -9.1156 0.2947 0.19225 -0.24877 -0 0 -0 -28.675 23.325 -12.24 56.404 -62.459 37.662 0.68237 -0.41189 -0.15629 -0 0 -0 -0 0 -0 -6.9272 -0.49257 9.464 5.2794 -3.5162 -1.3054 0.67542 5.2749 3.4134 -0 0 -0 0 0 -3.7019e-07 -0 0 -0 -6.9272 -0.49257 9.464 3.5744 1.0896 8.3291 2.4657 -7.5669 -20.499 -0 0 -0 -0 0 2.668e-08 -0 0 -0 
0 0.96899 0 -0 0 -0 -6.6792 -0.32866 9.6386 4.0977 3.9155 1.6037 4.0977 3.9155 1.6037 3.4485 3.2814 1.3656 -0 0 -0 36.785 23.148 18.272 -82.898 24.004 -8.9089 -0.48555 0.37485 1.3084 -0 0 -0 -27.415 22.07 -14.198 54.009 -61.537 35.249 0.6956 -0.050136 0.61993 -0 0 -0 -0 0 -0 -6.6792 -0.32866 9.6386 5.0463 -3.8056 -1.4266 0.71192 5.274 3.3903 -0 0 -0 0 0 -2.2011e-07 -0 0 -0 -6.6792 -0.32866 9.6386 3.3891 0.81275 8.1432 2.3316 -7.4615 -20.427 -0 0 -0 -0 0 4.6691e-08 -0 0 -0 
0 0.9687 0 -0 0 -0 -6.4519 -0.11454 9.8189 3.9227 3.8407 1.79 3.9227 3.8407 1.79 3.3023 3.2181 1.5209 -0 0 -0 38.517 22.078 17.059 -85.199 24.271 -5.7116 -1.4663 -0.0042771 2.0211 -0 0 -0 -26.786 20.56 -15.133 53.541 -60.279 35.43 0.40602 0.23239 0.31035 -0 0 -0 -0 0 -0 -6.4519 -0.11454 9.8189 4.9361 -4.0661 -1.4847 0.6282 5.2182 3.3196 -0 0 -0 5.3361e-08 -9.1627e-17 -1.9677e-07 -0 0 -0 -6.4519 -0.11454 9.8189 3.2153 0.56087 7.999 2.1538 -7.4572 -20.33 -0 0 -0 0 0 -7.6706e-08 -0 0 -0 
0 0.96845 0 -0 0 -0 -6.2877 -0.071579 10 3.8205 3.7771 1.8644 3.8205 3.7771 1.8644 3.2167 3.1645 1.5827 -0 0 -0 40.184 21.387 16.564 -90.878 25.091 2.788 1.026 -1.7791 -3.8965 -0 0 -0 -26.62 19.379 -14.607 53.443 -59.157 36.091 0.0046748 -0.016538 -0.71344 -0 0 -0 -0 0 -0 -6.2877 -0.071579 10 4.8099 -4.1451 -1.5714 0.66506 5.2298 3.3222 -0 0 -0 0 0 -9.5049e-08 -0 0 -0 -6.2877 -0.071579 10 3.1154 0.46862 7.996 1.935 -7.4201 -20.304 -0 0 -0 -0 0 1.0339e-07 -0 0 -0 
0 0.96828 0 -0 0 -0 -6.4392 -0.16288 10.401 3.8516 3.7167 1.8605 3.8516 3.7167 1.8605 3.2427 3.1138 1.5793 -0 0 -0 41.307 20.885 16.911 -93.474 22.852 2.1029 1.9751 -1.1018 -3.6664 -0 0 -0 -26.802 19.016 -13.046 53.961 -59.201 35.414 -0.50146 -0.18352 -0.7967 -0 0 -0 -0 0 -0 -6.4392 -0.16288 10.401 4.9937 -4.2238 -1.7177 0.73909 5.3652 3.1658 -0 0 -0 -0 0 3.5518e-07 -0 0 -0 -6.4392 -0.16288 10.401 3.3549 0.42062 7.9247 1.7372 -7.3749 -20.425 -0 0 -0 -0 0 1.334e-08 -0 0 -0 
0 0.96818 0 -0 0 -0 -6.417 -0.25579 10.857 3.9499 3.7331 2.1571 3.9499 3.7331 2.1571 3.3266 3.126 1.8289 -0 0 -0 41.724 18.826 17.761 -91.564 19.366 -6.8221 -0.93904 0.82035 2.8132 -0 0 -0 -26.94 19.621 -12.3 54.274 -60.759 33.093 -0.5114 -0.029137 0.062846 -0 0 -0 -0 0 -0 -6.417 -0.25579 10.857 4.9839 -4.3118 -1.8447 0.85366 5.512 2.9701 -0 0 -0 0 0 -2.0844e-07 -0 0 -0 -6.417 -0.25579 10.857 3.4303 0.32965 7.7032 1.6237 -7.3468 -20.501 -0 0 -0 -0 0 5.3361e-08 -0 0 -0 
0 0.96816 0 -0 0 -0 -6.3962 -0.35765 11.22 3.9059 3.8781 2.0947 3.9059 3.8781 2.0947 3.2897 3.2482 1.7769 -0 0 -0 41.545 16.671 19.695 -91.285 17.408 -8.9003 -1.1789 1.0208 2.3248 -0 0 -0 -26.795 19.412 -11.549 53.505 -62.266 30.475 -0.6857 0.093916 1.3071 -0 0 -0 -0 0 -0 -6.3962 -0.35765 11.22 4.9436 -4.4088 -1.8808 0.94584 5.5968 2.8027 -0 0 -0 0 0 -2.9182e-08 -0 0 -0 -6.3962 -0.35765 11.22 3.4896 0.30439 7.5432 1.603 -7.3724 -20.53 -0 0 -0 -0 0 6.6701e-09 -0 0 -0 
0 0.96823 0 -0 0 -0 -6.4429 -0.48037 11.447 3.8502 3.8802 1.9089 3.8502 3.8802 1.9089 3.242 3.2509 1.6207 -0 0 -0 40.786 15.234 20.752 -92.342 16.718 -6.0916 0.13351 0.29786 -0.61523 -0 0 -0 -26.75 18.693 -11.87 50.65 -62.48 29.002 -0.52599 0.02581 1.0464 -0 0 -0 -0 0 -0 -6.4429 -0.48037 11.447 4.9962 -4.3378 -1.746 0.96613 5.4776 2.5087 -0 0 -0 0 0 -2.9182e-08 -0 0 -0 -6.4429 -0.48037 11.447 3.5908 0.33076 7.6443 1.6226 -7.4061 -20.646 -0 0 -0 -1.0672e-07 -1.553e-17 1.6675e-08 -0 0 -0 
-0.0001109 0.96844 -0.00010241 -0 0 -0 -6.5175 -0.5996 11.457 3.8798 3.8238 1.6953 3.8798 3.8238 1.6953 3.2659 3.2045 1.4412 -0 0 -0 39.329 14.488 21.536 -92.55 16.114 -5.2039 0.31611 -0.092848 -1.1619 -0 0 -0 -27.098 17.623 -12.529 46.011 -62.315 28.182 0.10867 -0.059353 -0.54224 -0 0 -0 -0 0 -0 -6.5175 -0.5996 11.457 5.0669 -4.1903 -1.5948 0.98295 5.3508 2.3359 -0 0 -0 0 0 -3.185e-07 -0 0 -0 -6.5175 -0.5996 11.457 3.691 0.3637 7.9059 1.6496 -7.3867 -20.722 -0 0 -0 -0 0 1.334e-08 -0 0 -0 
